<svg id="Layer_1" data-name="Layer 1" xmlns="http://www.w3.org/2000/svg" viewBox="0 0 650 130"><defs><style>.cls-1{fill:#52cacb;}.cls-2{fill:#263238;}</style></defs><title>1</title><path class="cls-1" d="M38,121.76H11a4.59,4.59,0,0,1-3.68-4.09l6.79-2.45H36.19ZM7.47,116,9.68,94.76l1.8-1.64L15.9,98l-1.64,15.55ZM18.76,71,17.12,86.58l-5.48,4.91-1.39-1.64,2.21-21.27ZM41,69.4H19l-6.3-2.46a6,6,0,0,1,4.5-4.09H44.12ZM38.15,89,41,92.31l-3.61,3.27H16.14L13.2,92.31,16.88,89Z"/><path class="cls-1" d="M61.55,69.4l-6.3-2.46a6,6,0,0,1,4.5-4.09h26.1a4.61,4.61,0,0,1,3.68,4.09L82.74,69.4Zm8,23.72,2.94,3.28-2.2,21.27a6,6,0,0,1-4.5,4.09L64,115.22,66,96.4Zm-2.7-4.9L68.67,71h6.54l-1.8,17.19-3.68,3.27Z"/><path class="cls-1" d="M101,98l-1.8,17.19-3.11,6.54a4.59,4.59,0,0,1-3.68-4.09l2.37-22.91,1.8-1.64Zm-4.34-5.72-1.39-1.64,2.37-22.91a6,6,0,0,1,4.5-4.09l1.8,6.55-1.8,17.18ZM123.24,89l2.86,3.28-3.6,3.27H101.23l-2.94-3.27L102,89Zm4.42,4.09,1.47,1.64-2.37,22.91a6,6,0,0,1-4.5,4.09l-1.8-6.54L122.26,98Zm-4.17-6.54,1.8-17.18,3.11-6.55a4.62,4.62,0,0,1,3.68,4.09L129.7,89.85l-1.88,1.64Z"/><path class="cls-1" d="M156.29,108.67h-6.54l.73-6.55H157Zm2.79-26.18h-6.55l.66-6.55h6.54Z"/><path class="cls-1" d="M186.07,98l-1.8,17.19-3.1,6.54a4.61,4.61,0,0,1-3.69-4.09l2.38-22.91,1.8-1.64Zm2.87-27L187.3,86.58l-5.48,4.91-1.39-1.64,2.21-21.27Zm19.8-1.63H189.18l-6.3-2.46a6,6,0,0,1,4.5-4.09h24.47ZM208.33,89l2.86,3.28-3.6,3.27H186.32l-2.94-3.27L187.06,89Zm4.42,4.09,1.47,1.64-2.37,22.91a6,6,0,0,1-4.5,4.09l-1.8-6.54L207.35,98Zm-4.18-6.54,1.81-17.18,3.1-6.55a4.62,4.62,0,0,1,3.69,4.09l-2.38,22.91-1.88,1.64Z"/><path class="cls-1" d="M228.62,98l-1.8,17.19-3.11,6.54a4.6,4.6,0,0,1-3.68-4.09l2.37-22.91,1.8-1.64Zm-4.26-6.54L223,89.85l2.38-22.91a6,6,0,0,1,4.5-4.09l1.8,6.55-1.8,17.18Zm4.1,23.73h19.63l6.3,2.45a6,6,0,0,1-4.5,4.09H225.35Z"/><path class="cls-1" d="M271.16,98l-1.8,17.19-3.1,6.54a4.61,4.61,0,0,1-3.69-4.09L265,94.76l1.8-1.64ZM274,71l-1.64,15.55-5.48,4.91-1.39-1.64,2.21-21.27Zm19.8-1.63H274.27L268,66.94a6,6,0,0,1,4.5-4.09h24.47ZM293.42,89l2.86,3.28-3.6,3.27H271.41l-3-3.27L272.15,89Zm4.42,4.09,1.47,1.64-2.37,22.91a6,6,0,0,1-4.5,4.09l-1.8-6.54L292.44,98Zm-4.18-6.54,1.8-17.18,3.11-6.55a4.62,4.62,0,0,1,3.69,4.09l-2.38,22.91L298,91.49Z"/><path class="cls-1" d="M313.71,98l-1.8,17.19-3.11,6.54a4.59,4.59,0,0,1-3.68-4.09l2.37-22.91,1.8-1.64Zm2.86-27-1.63,15.55-5.49,4.91-1.39-1.64,2.21-21.27Zm19.8-1.63H316.82l-6.3-2.46a6,6,0,0,1,4.5-4.09h24.46ZM336,89l2.87,3.28-3.6,3.27H314L311,92.31,314.69,89Zm-20.53,8.19h4.91l19.06,21.27q-2,3.27-6.87,3.27l-17.59-19.64Zm20.78-10.64L338,69.4l3.11-6.55a4.61,4.61,0,0,1,3.68,4.09l-2.37,22.91-1.88,1.64Z"/><path class="cls-1" d="M356.25,98l-1.8,17.19-3.11,6.54a4.61,4.61,0,0,1-3.68-4.09L350,94.76l1.81-1.64Zm2.87-27-1.64,15.55L352,91.49l-1.39-1.64,2.21-21.27Zm19.8-1.63H359.36l-6.3-2.46a6,6,0,0,1,4.5-4.09H382Zm-7.86,20.45-3.68,3.27-2.86-3.27,2-18.82H373Zm11.87,3.27,1.47,1.64L382,117.67a6,6,0,0,1-4.5,4.09l-1.8-6.54L377.53,98Zm-4.18-6.54,1.8-17.18,3.11-6.55a4.6,4.6,0,0,1,3.68,4.09L385,89.85l-1.88,1.64Z"/><path class="cls-1" d="M411.56,108.67H405l.73-6.55h6.55Zm2.78-26.18H407.8l.65-6.55H415Z"/><path class="cls-1" d="M463.43,121.76h-27a4.61,4.61,0,0,1-3.68-4.09l6.79-2.45h22.09ZM432.91,116l2.21-21.27,1.8-1.64L441.34,98l-1.63,15.55Zm11.3-45-1.64,15.55-5.48,4.91-1.39-1.64,2.21-21.27Zm22.25-1.63h-22l-6.3-2.46a6,6,0,0,1,4.5-4.09h26.92Z"/><path class="cls-1" d="M483.89,98l-1.8,17.19L479,121.76a4.59,4.59,0,0,1-3.68-4.09l2.37-22.91,1.8-1.64Zm-4.26-6.54-1.39-1.64,2.37-22.91a6,6,0,0,1,4.5-4.09l1.8,6.55-1.8,17.18Zm4.09,23.73h19.64l6.3,2.45a6,6,0,0,1-4.5,4.09H480.61Z"/><path class="cls-1" d="M526.43,98l-1.8,17.19-2.7,2.45-3.68-4.09,2-18.82,1.8-1.64Zm-4.25-6.54-1.39-1.64,2-18.82,4.5-4.09,2.21,2.46-1.8,17.18Zm25,27-3.6,3.27h-18l-2.94-3.27,3.6-3.27h18ZM549.1,69.4h-18l-3-3.28,3.6-3.27h18l2.94,3.27Zm4,23.72,1.48,1.64-2,18.82-4.5,4.09-2.21-2.45L547.7,98Zm-4.17-6.54,1.8-17.18,2.7-2.46L557.11,71l-2,18.82-1.88,1.64Z"/><path class="cls-1" d="M591.07,121.76h-27a4.59,4.59,0,0,1-3.68-4.09l6.79-2.45h22.09ZM560.55,116l2.21-21.27,1.8-1.64L569,98l-1.64,15.55Zm11.29-45L570.2,86.58l-5.48,4.91-1.39-1.64,2.21-21.27Zm22.25-1.63h-22l-6.31-2.46a6,6,0,0,1,4.5-4.09H597.2Z"/><path class="cls-1" d="M611.52,98l-1.8,17.19-3.11,6.54a4.6,4.6,0,0,1-3.68-4.09l2.37-22.91,1.8-1.64Zm-4.25-6.54-1.39-1.64,2.37-22.91a6,6,0,0,1,4.5-4.09l1.8,6.55-1.8,17.18ZM633.78,89l2.86,3.28L633,95.58H611.77l-2.95-3.27L612.5,89Zm-19-6.54,21.69-19.64q4.9,0,6.21,3.27L619.21,87.4H614.3Zm23.4,10.63,1.48,1.64-2.38,22.91a6,6,0,0,1-4.5,4.09l-1.8-6.54L632.79,98Z"/><path class="cls-2" d="M33.73,31H21.25L19,43.76h-4L21,10.16H37.43c4.27,0,6.62,2.83,5.86,7.15l-1.16,6.58A8.35,8.35,0,0,1,33.73,31ZM39.3,17.46c.43-2.36-.82-3.84-3.17-3.84H24.32l-2.49,14H33.64a4.44,4.44,0,0,0,4.56-3.84Z"/><path class="cls-2" d="M55.81,43.76h-5.9c-4.28,0-6.63-2.88-5.91-7.15L45.87,26a8.34,8.34,0,0,1,8.4-7.15h5.91c4.32,0,6.67,2.83,5.9,7.15L64.21,36.61A8.31,8.31,0,0,1,55.81,43.76Zm6.58-17.9c.38-2.36-.77-3.84-3.17-3.84h-5a4.48,4.48,0,0,0-4.61,3.84L47.7,36.66c-.43,2.35.86,3.88,3.21,3.88H56a4.46,4.46,0,0,0,4.51-3.88Z"/><path class="cls-2" d="M74.1,43.76l-3.41-25h3.65L77,39.2l9.74-20.4h3.7L93,39.2l9.8-20.4h3.84l-12.15,25H90.28l-2.6-19.34L78.27,43.76Z"/><path class="cls-2" d="M127.19,35.84l-.15.77a8.31,8.31,0,0,1-8.4,7.15h-5.9c-4.27,0-6.63-2.88-5.91-7.15L108.71,26a8.32,8.32,0,0,1,8.4-7.15H123c4.32,0,6.67,2.83,5.91,7.15l-1.16,6.53H111.3l-.77,4.18a3,3,0,0,0,3.22,3.88h5a4.47,4.47,0,0,0,4.56-3.88l.14-.82ZM111.83,29.5h12.76l.63-3.64c.38-2.36-.77-3.84-3.17-3.84h-5a4.48,4.48,0,0,0-4.61,3.84Z"/><path class="cls-2" d="M149.22,22c-2.4,0-3.46.38-4.71,1.44l-6.67,5.66L135.3,43.76h-3.75l4.37-25h2.88l.14,4-.38,2.11L143,21.2a9.28,9.28,0,0,1,6.76-2.4Z"/><path class="cls-2" d="M169.43,35.84l-.15.77a8.31,8.31,0,0,1-8.4,7.15H155c-4.28,0-6.63-2.88-5.91-7.15L150.94,26a8.34,8.34,0,0,1,8.4-7.15h5.91c4.32,0,6.67,2.83,5.9,7.15L170,32.48H153.54l-.77,4.18c-.43,2.35.86,3.88,3.21,3.88h5a4.47,4.47,0,0,0,4.56-3.88l.14-.82ZM154.06,29.5h12.77l.63-3.64c.38-2.36-.77-3.84-3.17-3.84h-5a4.47,4.47,0,0,0-4.61,3.84Z"/><path class="cls-2" d="M190.88,37.57l-4.46,3.79a8.73,8.73,0,0,1-6,2.4c-4.27,0-6.58-2.88-5.81-7.1L176.43,26a8.34,8.34,0,0,1,8.4-7.15h3.65c2.54,0,4.42,1.1,5.14,3.07l2.44-13.63h3.7l-6.24,35.52h-2.88l-.14-4Zm2.06-11.86c.29-2.25-.86-3.69-3.16-3.69h-5a4.46,4.46,0,0,0-4.56,3.84l-1.92,10.8c-.44,2.35.81,3.88,3.16,3.88a5,5,0,0,0,3.51-1.48l6.67-5.62Z"/><path class="cls-2" d="M220.69,25l4.46-3.79a8.62,8.62,0,0,1,6-2.4c4.32,0,6.58,2.88,5.86,7.1l-1.92,10.71a8.31,8.31,0,0,1-8.4,7.15h-3.6c-2.79,0-4.76-1.25-5.48-3.41l-1.1,3.41h-2.88l6.24-35.52h3.74Zm-2,11.67c-.38,2.4.77,3.88,3.12,3.88h5a4.48,4.48,0,0,0,4.61-3.88l1.87-10.8c.43-2.36-.81-3.84-3.17-3.84a5,5,0,0,0-3.5,1.44L220,29.17Z"/><path class="cls-2" d="M240.7,53.36l5.43-9.6h-.29l-5.19-25h3.8l4.27,20.83L260.24,18.8h4l-19.3,34.56Z"/><path class="cls-1" d="M38,121.76H11a4.59,4.59,0,0,1-3.68-4.09l6.79-2.45H36.19ZM7.47,116,9.68,94.76l1.8-1.64L15.9,98l-1.64,15.55ZM18.76,71,17.12,86.58l-5.48,4.91-1.39-1.64,2.21-21.27ZM41,69.4H19l-6.3-2.46a6,6,0,0,1,4.5-4.09H44.12ZM38.15,89,41,92.31l-3.61,3.27H16.14L13.2,92.31,16.88,89Z"/><path class="cls-1" d="M61.55,69.4l-6.3-2.46a6,6,0,0,1,4.5-4.09h26.1a4.61,4.61,0,0,1,3.68,4.09L82.74,69.4Zm8,23.72,2.94,3.28-2.2,21.27a6,6,0,0,1-4.5,4.09L64,115.22,66,96.4Zm-2.7-4.9L68.67,71h6.54l-1.8,17.19-3.68,3.27Z"/><path class="cls-1" d="M101,98l-1.8,17.19-3.11,6.54a4.59,4.59,0,0,1-3.68-4.09l2.37-22.91,1.8-1.64Zm-4.34-5.72-1.39-1.64,2.37-22.91a6,6,0,0,1,4.5-4.09l1.8,6.55-1.8,17.18ZM123.24,89l2.86,3.28-3.6,3.27H101.23l-2.94-3.27L102,89Zm4.42,4.09,1.47,1.64-2.37,22.91a6,6,0,0,1-4.5,4.09l-1.8-6.54L122.26,98Zm-4.17-6.54,1.8-17.18,3.11-6.55a4.62,4.62,0,0,1,3.68,4.09L129.7,89.85l-1.88,1.64Z"/><path class="cls-1" d="M156.29,108.67h-6.54l.73-6.55H157Zm2.79-26.18h-6.55l.66-6.55h6.54Z"/><path class="cls-1" d="M186.07,98l-1.8,17.19-3.1,6.54a4.61,4.61,0,0,1-3.69-4.09l2.38-22.91,1.8-1.64Zm2.87-27L187.3,86.58l-5.48,4.91-1.39-1.64,2.21-21.27Zm19.8-1.63H189.18l-6.3-2.46a6,6,0,0,1,4.5-4.09h24.47ZM208.33,89l2.86,3.28-3.6,3.27H186.32l-2.94-3.27L187.06,89Zm4.42,4.09,1.47,1.64-2.37,22.91a6,6,0,0,1-4.5,4.09l-1.8-6.54L207.35,98Zm-4.18-6.54,1.81-17.18,3.1-6.55a4.62,4.62,0,0,1,3.69,4.09l-2.38,22.91-1.88,1.64Z"/><path class="cls-1" d="M228.62,98l-1.8,17.19-3.11,6.54a4.6,4.6,0,0,1-3.68-4.09l2.37-22.91,1.8-1.64Zm-4.26-6.54L223,89.85l2.38-22.91a6,6,0,0,1,4.5-4.09l1.8,6.55-1.8,17.18Zm4.1,23.73h19.63l6.3,2.45a6,6,0,0,1-4.5,4.09H225.35Z"/><path class="cls-1" d="M271.16,98l-1.8,17.19-3.1,6.54a4.61,4.61,0,0,1-3.69-4.09L265,94.76l1.8-1.64ZM274,71l-1.64,15.55-5.48,4.91-1.39-1.64,2.21-21.27Zm19.8-1.63H274.27L268,66.94a6,6,0,0,1,4.5-4.09h24.47ZM293.42,89l2.86,3.28-3.6,3.27H271.41l-3-3.27L272.15,89Zm4.42,4.09,1.47,1.64-2.37,22.91a6,6,0,0,1-4.5,4.09l-1.8-6.54L292.44,98Zm-4.18-6.54,1.8-17.18,3.11-6.55a4.62,4.62,0,0,1,3.69,4.09l-2.38,22.91L298,91.49Z"/><path class="cls-1" d="M313.71,98l-1.8,17.19-3.11,6.54a4.59,4.59,0,0,1-3.68-4.09l2.37-22.91,1.8-1.64Zm2.86-27-1.63,15.55-5.49,4.91-1.39-1.64,2.21-21.27Zm19.8-1.63H316.82l-6.3-2.46a6,6,0,0,1,4.5-4.09h24.46ZM336,89l2.87,3.28-3.6,3.27H314L311,92.31,314.69,89Zm-20.53,8.19h4.91l19.06,21.27q-2,3.27-6.87,3.27l-17.59-19.64Zm20.78-10.64L338,69.4l3.11-6.55a4.61,4.61,0,0,1,3.68,4.09l-2.37,22.91-1.88,1.64Z"/><path class="cls-1" d="M356.25,98l-1.8,17.19-3.11,6.54a4.61,4.61,0,0,1-3.68-4.09L350,94.76l1.81-1.64Zm2.87-27-1.64,15.55L352,91.49l-1.39-1.64,2.21-21.27Zm19.8-1.63H359.36l-6.3-2.46a6,6,0,0,1,4.5-4.09H382Zm-7.86,20.45-3.68,3.27-2.86-3.27,2-18.82H373Zm11.87,3.27,1.47,1.64L382,117.67a6,6,0,0,1-4.5,4.09l-1.8-6.54L377.53,98Zm-4.18-6.54,1.8-17.18,3.11-6.55a4.6,4.6,0,0,1,3.68,4.09L385,89.85l-1.88,1.64Z"/><path class="cls-1" d="M411.56,108.67H405l.73-6.55h6.55Zm2.78-26.18H407.8l.65-6.55H415Z"/><path class="cls-1" d="M463.43,121.76h-27a4.61,4.61,0,0,1-3.68-4.09l6.79-2.45h22.09ZM432.91,116l2.21-21.27,1.8-1.64L441.34,98l-1.63,15.55Zm11.3-45-1.64,15.55-5.48,4.91-1.39-1.64,2.21-21.27Zm22.25-1.63h-22l-6.3-2.46a6,6,0,0,1,4.5-4.09h26.92Z"/><path class="cls-1" d="M483.89,98l-1.8,17.19L479,121.76a4.59,4.59,0,0,1-3.68-4.09l2.37-22.91,1.8-1.64Zm-4.26-6.54-1.39-1.64,2.37-22.91a6,6,0,0,1,4.5-4.09l1.8,6.55-1.8,17.18Zm4.09,23.73h19.64l6.3,2.45a6,6,0,0,1-4.5,4.09H480.61Z"/><path class="cls-1" d="M526.43,98l-1.8,17.19-2.7,2.45-3.68-4.09,2-18.82,1.8-1.64Zm-4.25-6.54-1.39-1.64,2-18.82,4.5-4.09,2.21,2.46-1.8,17.18Zm25,27-3.6,3.27h-18l-2.94-3.27,3.6-3.27h18ZM549.1,69.4h-18l-3-3.28,3.6-3.27h18l2.94,3.27Zm4,23.72,1.48,1.64-2,18.82-4.5,4.09-2.21-2.45L547.7,98Zm-4.17-6.54,1.8-17.18,2.7-2.46L557.11,71l-2,18.82-1.88,1.64Z"/><path class="cls-1" d="M591.07,121.76h-27a4.59,4.59,0,0,1-3.68-4.09l6.79-2.45h22.09ZM560.55,116l2.21-21.27,1.8-1.64L569,98l-1.64,15.55Zm11.29-45L570.2,86.58l-5.48,4.91-1.39-1.64,2.21-21.27Zm22.25-1.63h-22l-6.31-2.46a6,6,0,0,1,4.5-4.09H597.2Z"/><path class="cls-1" d="M611.52,98l-1.8,17.19-3.11,6.54a4.6,4.6,0,0,1-3.68-4.09l2.37-22.91,1.8-1.64Zm-4.25-6.54-1.39-1.64,2.37-22.91a6,6,0,0,1,4.5-4.09l1.8,6.55-1.8,17.18ZM633.78,89l2.86,3.28L633,95.58H611.77l-2.95-3.27L612.5,89Zm-19-6.54,21.69-19.64q4.9,0,6.21,3.27L619.21,87.4H614.3Zm23.4,10.63,1.48,1.64-2.38,22.91a6,6,0,0,1-4.5,4.09l-1.8-6.54L632.79,98Z"/><path class="cls-2" d="M33.73,31H21.25L19,43.76h-4L21,10.16H37.43c4.27,0,6.62,2.83,5.86,7.15l-1.16,6.58A8.35,8.35,0,0,1,33.73,31ZM39.3,17.46c.43-2.36-.82-3.84-3.17-3.84H24.32l-2.49,14H33.64a4.44,4.44,0,0,0,4.56-3.84Z"/><path class="cls-2" d="M55.81,43.76h-5.9c-4.28,0-6.63-2.88-5.91-7.15L45.87,26a8.34,8.34,0,0,1,8.4-7.15h5.91c4.32,0,6.67,2.83,5.9,7.15L64.21,36.61A8.31,8.31,0,0,1,55.81,43.76Zm6.58-17.9c.38-2.36-.77-3.84-3.17-3.84h-5a4.48,4.48,0,0,0-4.61,3.84L47.7,36.66c-.43,2.35.86,3.88,3.21,3.88H56a4.46,4.46,0,0,0,4.51-3.88Z"/><path class="cls-2" d="M74.1,43.76l-3.41-25h3.65L77,39.2l9.74-20.4h3.7L93,39.2l9.8-20.4h3.84l-12.15,25H90.28l-2.6-19.34L78.27,43.76Z"/><path class="cls-2" d="M127.19,35.84l-.15.77a8.31,8.31,0,0,1-8.4,7.15h-5.9c-4.27,0-6.63-2.88-5.91-7.15L108.71,26a8.32,8.32,0,0,1,8.4-7.15H123c4.32,0,6.67,2.83,5.91,7.15l-1.16,6.53H111.3l-.77,4.18a3,3,0,0,0,3.22,3.88h5a4.47,4.47,0,0,0,4.56-3.88l.14-.82ZM111.83,29.5h12.76l.63-3.64c.38-2.36-.77-3.84-3.17-3.84h-5a4.48,4.48,0,0,0-4.61,3.84Z"/><path class="cls-2" d="M149.22,22c-2.4,0-3.46.38-4.71,1.44l-6.67,5.66L135.3,43.76h-3.75l4.37-25h2.88l.14,4-.38,2.11L143,21.2a9.28,9.28,0,0,1,6.76-2.4Z"/><path class="cls-2" d="M169.43,35.84l-.15.77a8.31,8.31,0,0,1-8.4,7.15H155c-4.28,0-6.63-2.88-5.91-7.15L150.94,26a8.34,8.34,0,0,1,8.4-7.15h5.91c4.32,0,6.67,2.83,5.9,7.15L170,32.48H153.54l-.77,4.18c-.43,2.35.86,3.88,3.21,3.88h5a4.47,4.47,0,0,0,4.56-3.88l.14-.82ZM154.06,29.5h12.77l.63-3.64c.38-2.36-.77-3.84-3.17-3.84h-5a4.47,4.47,0,0,0-4.61,3.84Z"/><path class="cls-2" d="M190.88,37.57l-4.46,3.79a8.73,8.73,0,0,1-6,2.4c-4.27,0-6.58-2.88-5.81-7.1L176.43,26a8.34,8.34,0,0,1,8.4-7.15h3.65c2.54,0,4.42,1.1,5.14,3.07l2.44-13.63h3.7l-6.24,35.52h-2.88l-.14-4Zm2.06-11.86c.29-2.25-.86-3.69-3.16-3.69h-5a4.46,4.46,0,0,0-4.56,3.84l-1.92,10.8c-.44,2.35.81,3.88,3.16,3.88a5,5,0,0,0,3.51-1.48l6.67-5.62Z"/><path class="cls-2" d="M220.69,25l4.46-3.79a8.62,8.62,0,0,1,6-2.4c4.32,0,6.58,2.88,5.86,7.1l-1.92,10.71a8.31,8.31,0,0,1-8.4,7.15h-3.6c-2.79,0-4.76-1.25-5.48-3.41l-1.1,3.41h-2.88l6.24-35.52h3.74Zm-2,11.67c-.38,2.4.77,3.88,3.12,3.88h5a4.48,4.48,0,0,0,4.61-3.88l1.87-10.8c.43-2.36-.81-3.84-3.17-3.84a5,5,0,0,0-3.5,1.44L220,29.17Z"/><path class="cls-2" d="M240.7,53.36l5.43-9.6h-.29l-5.19-25h3.8l4.27,20.83L260.24,18.8h4l-19.3,34.56Z"/></svg>